<svg id="visual" viewBox="0 0 900 600" width="900" height="600" xmlns="http://www.w3.org/2000/svg" xmlns:xlink="http://www.w3.org/1999/xlink" version="1.1"><g stroke-width="1" stroke-linejoin="bevel"><path d="M494 268L505 181L394 228Z" fill="#205a7a" stroke="#205a7a"></path><path d="M394 228L400 329L494 268Z" fill="#15384f" stroke="#15384f"></path><path d="M474 426L585 303L494 268Z" fill="#00101c" stroke="#00101c"></path><path d="M494 268L615 220L505 181Z" fill="#15384f" stroke="#15384f"></path><path d="M428 63L308 171L394 228Z" fill="#205a7a" stroke="#205a7a"></path><path d="M394 228L266 318L400 329Z" fill="#00101c" stroke="#00101c"></path><path d="M531 60L428 63L505 181Z" fill="#19435d" stroke="#19435d"></path><path d="M505 181L428 63L394 228Z" fill="#081a28" stroke="#081a28"></path><path d="M585 303L615 220L494 268Z" fill="#19435d" stroke="#19435d"></path><path d="M615 220L595 128L505 181Z" fill="#00101c" stroke="#00101c"></path><path d="M333 431L409 379L400 329Z" fill="#277297" stroke="#277297"></path><path d="M400 329L409 379L494 268Z" fill="#112e42" stroke="#112e42"></path><path d="M595 128L531 60L505 181Z" fill="#00101c" stroke="#00101c"></path><path d="M428 63L288 112L308 171Z" fill="#1d4e6b" stroke="#1d4e6b"></path><path d="M409 379L474 426L494 268Z" fill="#00101c" stroke="#00101c"></path><path d="M205 213L266 318L308 171Z" fill="#277297" stroke="#277297"></path><path d="M308 171L266 318L394 228Z" fill="#277297" stroke="#277297"></path><path d="M409 379L333 431L474 426Z" fill="#0c2435" stroke="#0c2435"></path><path d="M621 0L506 0L531 60Z" fill="#277297" stroke="#277297"></path><path d="M531 60L506 0L428 63Z" fill="#112e42" stroke="#112e42"></path><path d="M428 63L364 0L288 112Z" fill="#00101c" stroke="#00101c"></path><path d="M474 426L616 384L585 303Z" fill="#277297" stroke="#277297"></path><path d="M735 263L719 210L615 220Z" fill="#15384f" stroke="#15384f"></path><path d="M506 0L364 0L428 63Z" fill="#277297" stroke="#277297"></path><path d="M218 0L234 133L288 112Z" fill="#081a28" stroke="#081a28"></path><path d="M288 112L234 133L308 171Z" fill="#246688" stroke="#246688"></path><path d="M266 318L333 431L400 329Z" fill="#1d4e6b" stroke="#1d4e6b"></path><path d="M234 133L205 213L308 171Z" fill="#00101c" stroke="#00101c"></path><path d="M364 0L330 0L288 112Z" fill="#00101c" stroke="#00101c"></path><path d="M205 213L223 333L266 318Z" fill="#19435d" stroke="#19435d"></path><path d="M266 318L217 438L333 431Z" fill="#297ea6" stroke="#297ea6"></path><path d="M735 263L615 220L585 303Z" fill="#277297" stroke="#277297"></path><path d="M615 220L719 210L595 128Z" fill="#205a7a" stroke="#205a7a"></path><path d="M595 128L621 0L531 60Z" fill="#00101c" stroke="#00101c"></path><path d="M710 93L621 0L595 128Z" fill="#00101c" stroke="#00101c"></path><path d="M616 384L735 263L585 303Z" fill="#246688" stroke="#246688"></path><path d="M719 210L710 93L595 128Z" fill="#00101c" stroke="#00101c"></path><path d="M815 170L710 93L719 210Z" fill="#19435d" stroke="#19435d"></path><path d="M627 520L712 398L616 384Z" fill="#1d4e6b" stroke="#1d4e6b"></path><path d="M616 384L712 398L735 263Z" fill="#205a7a" stroke="#205a7a"></path><path d="M279 533L369 524L333 431Z" fill="#205a7a" stroke="#205a7a"></path><path d="M333 431L369 524L474 426Z" fill="#0c2435" stroke="#0c2435"></path><path d="M474 426L521 536L616 384Z" fill="#297ea6" stroke="#297ea6"></path><path d="M710 93L686 0L621 0Z" fill="#0c2435" stroke="#0c2435"></path><path d="M330 0L218 0L288 112Z" fill="#00101c" stroke="#00101c"></path><path d="M234 133L114 73L205 213Z" fill="#1d4e6b" stroke="#1d4e6b"></path><path d="M369 524L521 536L474 426Z" fill="#00101c" stroke="#00101c"></path><path d="M223 333L217 438L266 318Z" fill="#19435d" stroke="#19435d"></path><path d="M121 333L217 438L223 333Z" fill="#246688" stroke="#246688"></path><path d="M521 536L627 520L616 384Z" fill="#15384f" stroke="#15384f"></path><path d="M788 537L763 381L712 398Z" fill="#0c2435" stroke="#0c2435"></path><path d="M712 398L763 381L735 263Z" fill="#00101c" stroke="#00101c"></path><path d="M735 263L815 170L719 210Z" fill="#246688" stroke="#246688"></path><path d="M65 179L121 333L205 213Z" fill="#205a7a" stroke="#205a7a"></path><path d="M205 213L121 333L223 333Z" fill="#1d4e6b" stroke="#1d4e6b"></path><path d="M167 506L279 533L217 438Z" fill="#246688" stroke="#246688"></path><path d="M217 438L279 533L333 431Z" fill="#112e42" stroke="#112e42"></path><path d="M376 600L533 600L521 536Z" fill="#19435d" stroke="#19435d"></path><path d="M829 269L815 170L735 263Z" fill="#277297" stroke="#277297"></path><path d="M710 93L776 0L686 0Z" fill="#297ea6" stroke="#297ea6"></path><path d="M815 170L795 86L710 93Z" fill="#246688" stroke="#246688"></path><path d="M218 0L114 73L234 133Z" fill="#1d4e6b" stroke="#1d4e6b"></path><path d="M763 381L829 269L735 263Z" fill="#19435d" stroke="#19435d"></path><path d="M900 0L776 0L795 86Z" fill="#00101c" stroke="#00101c"></path><path d="M795 86L776 0L710 93Z" fill="#15384f" stroke="#15384f"></path><path d="M376 600L521 536L369 524Z" fill="#0c2435" stroke="#0c2435"></path><path d="M521 536L581 600L627 520Z" fill="#0c2435" stroke="#0c2435"></path><path d="M627 520L685 533L712 398Z" fill="#112e42" stroke="#112e42"></path><path d="M900 312L900 210L829 269Z" fill="#246688" stroke="#246688"></path><path d="M581 600L685 533L627 520Z" fill="#0c2435" stroke="#0c2435"></path><path d="M335 600L376 600L369 524Z" fill="#205a7a" stroke="#205a7a"></path><path d="M114 73L65 179L205 213Z" fill="#15384f" stroke="#15384f"></path><path d="M279 533L335 600L369 524Z" fill="#1d4e6b" stroke="#1d4e6b"></path><path d="M533 600L581 600L521 536Z" fill="#19435d" stroke="#19435d"></path><path d="M218 0L119 0L114 73Z" fill="#0c2435" stroke="#0c2435"></path><path d="M0 119L0 204L65 179Z" fill="#19435d" stroke="#19435d"></path><path d="M0 327L107 423L121 333Z" fill="#297ea6" stroke="#297ea6"></path><path d="M121 333L107 423L217 438Z" fill="#205a7a" stroke="#205a7a"></path><path d="M279 533L239 600L335 600Z" fill="#277297" stroke="#277297"></path><path d="M107 423L167 506L217 438Z" fill="#297ea6" stroke="#297ea6"></path><path d="M0 415L110 488L107 423Z" fill="#1d4e6b" stroke="#1d4e6b"></path><path d="M107 423L110 488L167 506Z" fill="#0c2435" stroke="#0c2435"></path><path d="M167 506L239 600L279 533Z" fill="#205a7a" stroke="#205a7a"></path><path d="M90 600L239 600L167 506Z" fill="#081a28" stroke="#081a28"></path><path d="M829 269L900 210L815 170Z" fill="#00101c" stroke="#00101c"></path><path d="M815 170L900 68L795 86Z" fill="#19435d" stroke="#19435d"></path><path d="M900 312L829 269L763 381Z" fill="#15384f" stroke="#15384f"></path><path d="M900 390L900 312L763 381Z" fill="#297ea6" stroke="#297ea6"></path><path d="M0 119L65 179L114 73Z" fill="#081a28" stroke="#081a28"></path><path d="M65 179L0 327L121 333Z" fill="#205a7a" stroke="#205a7a"></path><path d="M734 600L788 537L685 533Z" fill="#1d4e6b" stroke="#1d4e6b"></path><path d="M685 533L788 537L712 398Z" fill="#081a28" stroke="#081a28"></path><path d="M0 0L0 119L114 73Z" fill="#205a7a" stroke="#205a7a"></path><path d="M0 204L0 327L65 179Z" fill="#00101c" stroke="#00101c"></path><path d="M900 210L900 68L815 170Z" fill="#00101c" stroke="#00101c"></path><path d="M581 600L734 600L685 533Z" fill="#15384f" stroke="#15384f"></path><path d="M900 490L900 390L763 381Z" fill="#0c2435" stroke="#0c2435"></path><path d="M900 68L900 0L795 86Z" fill="#1d4e6b" stroke="#1d4e6b"></path><path d="M0 327L0 415L107 423Z" fill="#112e42" stroke="#112e42"></path><path d="M110 488L90 600L167 506Z" fill="#15384f" stroke="#15384f"></path><path d="M734 600L785 600L788 537Z" fill="#19435d" stroke="#19435d"></path><path d="M788 537L900 490L763 381Z" fill="#081a28" stroke="#081a28"></path><path d="M119 0L0 0L114 73Z" fill="#0c2435" stroke="#0c2435"></path><path d="M900 600L900 490L788 537Z" fill="#112e42" stroke="#112e42"></path><path d="M0 536L90 600L110 488Z" fill="#0c2435" stroke="#0c2435"></path><path d="M0 415L0 536L110 488Z" fill="#00101c" stroke="#00101c"></path><path d="M785 600L900 600L788 537Z" fill="#246688" stroke="#246688"></path><path d="M0 536L0 600L90 600Z" fill="#277297" stroke="#277297"></path></g></svg>